<?xml version="1.0" encoding="UTF-8"?><svg id="Layer_2" xmlns="http://www.w3.org/2000/svg" viewBox="0 0 111.11 191.64"><g id="Layer_1-2"><path d="M2.27,141.4v-16.81h.83v16.05h10.3v.76H2.27Z" style="fill:#787878;"/><path d="M11.67,128.24l.28-2.18h-.31v-1.94h.88v1.94l-.38,2.18h-.47Z" style="fill:#787878;"/><path d="M26.49,124.6h.71l7.22,16.81h-.88l-2.46-5.8h-8.47l-2.46,5.8h-.9l7.24-16.81ZM30.78,134.89l-3.93-9.26-3.93,9.26h7.87Z" style="fill:#787878;"/><path d="M47.06,125.35h-6.3v16.05h-.83v-16.05h-6.3v-.76h13.42v.76Z" style="fill:#787878;"/><path d="M60.86,140.64v.76h-11.1v-16.81h10.89v.76h-10.06v7.08h8.81v.76h-8.81v7.46h10.27Z" style="fill:#787878;"/><path d="M64.31,141.4v-16.81h.83v16.05h10.3v.76h-11.12Z" style="fill:#787878;"/><path d="M78.04,141.4v-16.81h.83v16.81h-.83Z" style="fill:#787878;"/><path d="M94.52,140.64v.76h-11.1v-16.81h10.89v.76h-10.06v7.08h8.81v.76h-8.81v7.46h10.27Z" style="fill:#787878;"/><path d="M97.97,141.4v-16.81h6.91c.71,0,1.36.15,1.94.44.58.29,1.09.69,1.51,1.18s.76,1.05.99,1.66c.24.61.36,1.23.36,1.86,0,.85-.17,1.65-.52,2.39-.35.74-.83,1.36-1.44,1.85s-1.33.77-2.15.85l4.21,6.58h-.95l-4.17-6.49h-5.87v6.49h-.83ZM98.8,134.16h6.23c.79,0,1.47-.21,2.05-.64s1.02-.98,1.34-1.66c.32-.68.47-1.39.47-2.13s-.18-1.47-.54-2.14-.85-1.21-1.46-1.62-1.28-.62-2.02-.62h-6.06v8.81Z" style="fill:#787878;"/><path d="M10.42,172.1c-1.32,0-2.54-.28-3.68-.85-1.13-.57-2.12-1.33-2.95-2.3-.83-.96-1.48-2.04-1.94-3.23-.46-1.19-.68-2.41-.68-3.68,0-1.34.23-2.6.68-3.8s1.09-2.26,1.91-3.19c.82-.93,1.78-1.66,2.9-2.2,1.11-.54,2.33-.81,3.65-.81,1.95,0,3.54.4,4.76,1.2,1.23.8,2.15,1.84,2.79,3.12l-1.5,1c-.63-1.23-1.48-2.13-2.53-2.7s-2.24-.86-3.54-.86c-1.09,0-2.08.23-2.97.7s-1.64,1.09-2.27,1.87c-.63.78-1.11,1.66-1.43,2.65-.33.98-.49,2.01-.49,3.06,0,1.11.18,2.17.56,3.16.37.99.9,1.88,1.59,2.65.69.77,1.48,1.37,2.38,1.81.9.44,1.87.65,2.91.65,1.21,0,2.35-.3,3.42-.91s2.11-1.54,3.09-2.8v2.06c-1.88,2.27-4.09,3.4-6.66,3.4ZM16.76,163.75h-4.4v-1.5h6.04v9.72h-1.64v-8.22Z" style="fill:#fff;"/><path d="M29.83,152.19h1.64l8.22,19.77h-2.06l-2.47-6.18h-9.04l-2.47,6.18h-2.09l8.27-19.77ZM34.54,164.25l-3.91-9.78-3.91,9.78h7.81Z" style="fill:#fff;"/><path d="M43.8,171.96v-19.77h1.95v18.05h11.42v1.73h-13.37Z" style="fill:#fff;"/><path d="M61.32,171.96v-19.77h1.95v18.05h11.42v1.73h-13.37Z" style="fill:#fff;"/><path d="M92.12,170.24v1.73h-13.28v-19.77h13.03v1.73h-11.08v7.13h9.66v1.64h-9.66v7.55h11.33Z" style="fill:#fff;"/><path d="M111.11,153.92h-7.05v18.05h-1.95v-18.05h-7.04v-1.73h16.04v1.73Z" style="fill:#fff;"/><polygon points="90.15 191.64 90.15 191.64 90.15 191.64 90.15 191.64" style="fill:#010101;"/><path d="M73.34,4.14c-.56,0-1.12.02-1.68.05.67-.04,1.34-.05,2-.04-.11,0-.21,0-.32,0Z" style="fill:none;"/><path d="M95.54,22.53c.38.92.73,1.86,1.04,2.82.25.78.48,1.57.69,2.38-.21-.8-.44-1.6-.69-2.38-.31-.96-.66-1.91-1.04-2.82Z" style="fill:none;"/><path d="M49.28,56.14c-.1-1.08-.18-2.13-.25-3.16,0,0,0,0,0-.01,0,0,0,0,0,.01.06,1.02.14,2.08.25,3.16Z" style="fill:none;"/><path d="M87.66,98.18c-.99-1.75-1.8-3.88-2.62-5.73-2.24-5.08-4.37-10.23-6.55-15.35-7.91-18.61-15.63-37.3-23.45-55.95-2.35,5.05-4.25,11.83-4.91,20.12l23.25,55.9c.83,2.29,0,6.05-3,6.05h-7.32v3.39h34.3v-3.3c-4.1.49-7.72-1.59-9.71-5.13Z" style="fill:#787878;"/><path d="M46.59.09l-2.49-.09-.13.06L13.77,73.24c-2.35,5.76-7.1,11.55-13.76,11.99h0v3.22h26.29v-3.22c-3.68,0-8.87-1.36-9.71-5.53-.58-2.89,1.58-8.2,2.6-11.04,1.41-3.93,2.95-7.83,4.49-11.72,5.29-13.4,11.02-26.62,16.6-39.9.19-.03.13,0,.19.1.18.33,1.18,2.85,2.23,5.55,2.23-4.39,5.09-8.15,8.54-11.17L46.59.09Z" style="fill:#787878;"/><path d="M72.99,6.72c.53-.01,1.07-.02,1.63.01-.4-.02-.8-.03-1.19-.03-.15,0-.29.02-.44.02Z" style="fill:#fff;"/><path d="M98.46,35.09h1.99V7.4h-1.9c-.21,3.28-.92,6.53-1.91,9.67l-2.93-3.89C81.74-.5,59.8,2.38,48.62,15.51c-8.91,10.34-11.08,24.74-10.39,38.01.9,19.02,11.32,35.33,31.3,37.69l-1.27-2.98c-21.09-5.81-21.53-42-17.06-59.25,2.57-10.72,9.47-22.31,21.8-22.27,15.87-.54,24.69,14.38,25.47,28.37Z" style="fill:#fff;"/><path d="M110.99,53.77h-30.13v3.14h5.58c.28,0,1.1.3,1.39.43,3.25,1.38,3.14,5.05,3.27,8.05.17,3.73.2,7.61-.52,11.3-.39,2-.79,3.18-2.16,4.7-1.59,1.76-2.81,2.65-4.57,4.25l1.49,3.1c2.63-1.08,4.38-1.7,7.01-2.77,2.19-.9,3.32-1.22,5.74-1.29,1.06-.03,2.12.02,3.18.09.06-2.4.03-4.82.08-7.23.06-3.38.19-6.79.25-10.16.06-3.12-.74-8.22,2.56-9.93.31-.17,1.31-.54,1.61-.54h5.33v-3.02l-.12-.12Z" style="fill:#fff;"/></g></svg>