<?xml version="1.0" encoding="UTF-8"?>
<svg id="Layer_2" xmlns="http://www.w3.org/2000/svg" viewBox="0 0 290.22 294.55">
  <defs>
    <style>
      .cls-1, .cls-2 {
        fill: #36261f;
      }

      .cls-3 {
        fill: #a69582;
      }

      .cls-3, .cls-4, .cls-5, .cls-6, .cls-7, .cls-8, .cls-9, .cls-10, .cls-11, .cls-2 {
        fill-rule: evenodd;
      }

      .cls-4, .cls-12 {
        fill: #c9b39a;
      }

      .cls-5 {
        fill: #ad780e;
      }

      .cls-6 {
        fill: #faf4ed;
      }

      .cls-13, .cls-11 {
        fill: #f1dfcb;
      }

      .cls-14, .cls-9 {
        fill: #eaa416;
      }

      .cls-7 {
        fill: #402f27;
      }

      .cls-15 {
        fill: #fff;
      }

      .cls-8 {
        fill: #b0b0c8;
      }

      .cls-10 {
        fill: #fd9;
      }
    </style>
  </defs>
  <g id="HEADER">
    <g>
      <path class="cls-14" d="M171.17,219.14l1,5.49,30.03,12.65,13.5-13.8c-14.93-.38-29.76-2.12-44.53-4.33Z"/>
      <path class="cls-14" d="M111.1,239.03l-23.94,11.47.95.96c15.65,15.87,36.87,24.69,59.12,25.03h.83s-6.08-23.42-6.08-23.42l-30.88-14.04Z"/>
      <path class="cls-15" d="M92.69,221.99c-8.05.4-15.99,1.73-23.99,2.51,3.64,9.05,8.82,17.45,15.34,24.81l.32.36,24.46-11.72-2.35-16.96c-4.59.41-9.18.77-13.78,1Z"/>
      <path class="cls-15" d="M203.75,241.3l2.42,14.01.86-.82c.49-.47.97-.94,1.45-1.42,7.65-7.65,13.8-16.68,18.08-26.61l.24-.55-5.37-2.67-17.67,18.05Z"/>
      <path class="cls-15" d="M171.11,227.63l-26,24.81,6.24,24.03.51-.02c19.06-.72,37.18-7.73,51.76-20.02l.28-.24-2.74-15.9-30.05-12.66Z"/>
      <path class="cls-15" d="M167.15,219.35c-16.3-2.35-32.93-.92-49.25.58-2.75.25-5.5.51-8.26.77l2.37,17.09,30.47,13.84,26.03-24.84-1.35-7.45Z"/>
      <path class="cls-8" d="M227.1,224.85c-4.28,9.93-10.44,18.96-18.08,26.61-.48.48-.96.95-1.45,1.42l-.86.82-2.42-14.01,17.67-18.05,5.37,2.67-.24.55ZM92.25,244.53c-6.52-2.77-12.35-6.17-17.28-9.99,2.76,4.66,5.98,9.07,9.6,13.16l.32.36,7.36-3.53ZM186.73,234.21c-4.56,3.73-9.6,6.9-15.14,9.36-8.29,3.68-16.67,6.08-24.94,7.4l-1.54,1.47,6.24,24.03.51-.02c19.06-.72,37.18-7.73,51.76-20.02l.28-.24-2.74-15.9-14.43-6.08Z"/>
      <path class="cls-1" d="M220.2,236.51c-3.34,5.26-7.25,10.12-11.63,14.51-.47.47-.96.95-1.44,1.41l-2.16-12.52,8.66-8.85c-1-1.17-1.78-2.53-2.35-3.97l-9.24,9.44-29.31-12.35-.55-3.04h-4.52l.7,3.84-25.47,24.3-29.76-13.52-1.96-14.17h-4.5l1.99,14.39-23.61,11.31c-5.88-6.64-10.73-14.21-14.32-22.45-6.42.11-12.84.4-19.24.87,5.31,14.43,13.69,27.38,24.35,38.04,19.03,19.04,45.34,30.81,74.39,30.81s55.35-11.78,74.38-30.81c6.34-6.34,11.87-13.5,16.44-21.29-7.08-1.37-13.9-3.86-20.84-5.94ZM88.56,251.01l-.33-.33,22.87-10.95,30.34,13.79,5.8,22.34c-22.91-.35-43.61-9.78-58.68-24.85ZM151.83,275.81l-6.01-23.17,25.43-24.26,29.34,12.36,2.62,15.2c-13.99,11.78-31.84,19.13-51.38,19.87Z"/>
      <path class="cls-2" d="M58.22,92.98c.36.88.76,1.74,1.2,2.58-1.2,2.68-2.11,5.49-2.69,8.37-.13.64-.24,1.29-.34,1.94,5.75-1.54,11.58-2.72,17.54-3.13.47-1.15,1.03-2.26,1.68-3.32l2.86-4.68-3.25-4.37c-.82-1.11-1.52-2.31-2.05-3.58-.54-1.29-.9-2.65-1.11-4.03-.62-4.07.23-8.19,2.43-11.68,2.2-3.47,5.56-6.04,9.5-7.23l6.32-1.9,38.45,14.7c2.2.84,5.86-17.14-4.6-25.97-8.84-7.47-32.06-5.79-30.83-7.36,2.69-3.43,6.56-5.66,10.87-6.31,1.18-.18,2.39-.25,3.58-.18,1.19.07,2.36.26,3.51.57l7.86,2.17,2.11-7.88c.86-3.21,2.67-6.11,5.15-8.32,2.48-2.22,5.53-3.63,8.81-4.13,2.36-.36,4.77-.24,7.07.39,2.31.64,4.47,1.77,6.32,3.29l4.94,4.06,5.09-3.88c2.25-1.71,4.72-3.13,7.32-4.23,2.62-1.11,5.36-1.87,8.17-2.3,8.87-1.34,17.83.83,25.08,6.11,7.25,5.29,12.1,13.14,13.53,22.01l.89,5.5,5.44,1.14c3.19.67,6.1,2.32,8.34,4.69,2.24,2.36,3.67,5.33,4.15,8.55.44,2.94.09,5.93-1.08,8.66-1.17,2.73-3.09,5.09-5.53,6.79l-6.57,4.6,4.52,6.6c1.19,1.75,2.2,3.62,2.97,5.59.73,1.86,1.24,3.8,1.57,5.77,5.85.33,11.57,1.97,16.6,4.93.01-2.3-.15-4.62-.5-6.93-.5-3.3-1.38-6.54-2.6-9.65-.35-.89-.73-1.77-1.13-2.63,2.3-2.59,4.17-5.54,5.54-8.72,2.35-5.49,3.14-11.53,2.24-17.44-.98-6.49-3.9-12.48-8.41-17.26-3.23-3.42-7.19-6.09-11.56-7.81-2.97-11.04-9.6-20.7-18.85-27.45-10.71-7.81-23.95-11.07-37.06-9.09-4.14.63-8.19,1.76-12.05,3.4-2.04.86-4.02,1.86-5.92,2.99-2.26-1.24-4.66-2.21-7.15-2.89-4.48-1.23-9.21-1.53-13.81-.83-6.41.97-12.35,3.76-17.18,8.08-2.97,2.65-5.44,5.83-7.29,9.35-2.19-.1-4.38,0-6.55.33-8.4,1.27-15.92,5.67-21.17,12.34-3.93,5-6.35,11.02-6.97,17.34-5.23,2.72-9.66,6.79-12.81,11.79-4.28,6.78-5.98,14.81-4.78,22.74.4,2.68,1.14,5.29,2.18,7.79Z"/>
      <path class="cls-2" d="M53.08,158.06c3.69-1.57,7.61-2.01,11.5-2.85,8.01-1.74,15.93-3.52,24.05-4.7,14.98-2.17,29.98-3.01,45.1-3.43,14.75-.4,29.55-.7,44.3-.24,13.48.42,26.76,1.92,39.46,6.67,12.61,4.71,25.39,9.19,37.36,15.41,4.45-40.74-7.06-62.22-7.06-62.22-38.37-16.51-97.46-15.08-97.46-15.08,0,0-59.09-1.43-97.46,15.08,0,0-10.23,19.08-7.68,55.38,2.62-1.35,5.17-2.86,7.89-4.02Z"/>
      <path class="cls-2" d="M58.22,92.98c.36.88.76,1.74,1.2,2.58-1.2,2.68-2.11,5.49-2.69,8.37-.13.64-.24,1.29-.34,1.94,5.75-1.54,11.58-2.72,17.54-3.13.47-1.15,1.03-2.26,1.68-3.32l2.86-4.68-3.25-4.37c-.82-1.11-1.52-2.31-2.05-3.58-.54-1.29-.9-2.65-1.11-4.03-.62-4.07.23-8.19,2.43-11.68,2.2-3.47,5.56-6.04,9.5-7.23l6.32-1.9,38.45,14.7c2.2.84,5.86-17.14-4.6-25.97-8.84-7.47-32.06-5.79-30.83-7.36,2.69-3.43,6.56-5.66,10.87-6.31,1.18-.18,2.39-.25,3.58-.18,1.19.07,2.36.26,3.51.57l7.86,2.17,2.11-7.88c.86-3.21,2.67-6.11,5.15-8.32,2.48-2.22,5.53-3.63,8.81-4.13,2.36-.36,4.77-.24,7.07.39,2.31.64,4.47,1.77,6.32,3.29l4.94,4.06,5.09-3.88c2.25-1.71,4.72-3.13,7.32-4.23,2.62-1.11,5.36-1.87,8.17-2.3,8.87-1.34,17.83.83,25.08,6.11,7.25,5.29,12.1,13.14,13.53,22.01l.89,5.5,5.44,1.14c3.19.67,6.1,2.32,8.34,4.69,2.24,2.36,3.67,5.33,4.15,8.55.44,2.94.09,5.93-1.08,8.66-1.17,2.73-3.09,5.09-5.53,6.79l-6.57,4.6,4.52,6.6c1.19,1.75,2.2,3.62,2.97,5.59.73,1.86,1.24,3.8,1.57,5.77,5.85.33,11.57,1.97,16.6,4.93.01-2.3-.15-4.62-.5-6.93-.5-3.3-1.38-6.54-2.6-9.65-.35-.89-.73-1.77-1.13-2.63,2.3-2.59,4.17-5.54,5.54-8.72,2.35-5.49,3.14-11.53,2.24-17.44-.98-6.49-3.9-12.48-8.41-17.26-3.23-3.42-7.19-6.09-11.56-7.81-2.97-11.04-9.6-20.7-18.85-27.45-10.71-7.81-23.95-11.07-37.06-9.09-4.14.63-8.19,1.76-12.05,3.4-2.04.86-4.02,1.86-5.92,2.99-2.26-1.24-4.66-2.21-7.15-2.89-4.48-1.23-9.21-1.53-13.81-.83-6.41.97-12.35,3.76-17.18,8.08-2.97,2.65-5.44,5.83-7.29,9.35-2.19-.1-4.38,0-6.55.33-8.4,1.27-15.92,5.67-21.17,12.34-3.93,5-6.35,11.02-6.97,17.34-5.23,2.72-9.66,6.79-12.81,11.79-4.28,6.78-5.98,14.81-4.78,22.74.4,2.68,1.14,5.29,2.18,7.79Z"/>
      <path class="cls-6" d="M73.4,91.64l2.4,3.23-2.12,3.46c-.98,1.6-1.78,3.31-2.4,5.1,11.35-1.79,22.86-2.09,34.31-3.08,11.68-1.01,23.13-3.58,34.75-5.05,12.13-1.54,24.27-1.7,36.47-.99,11.88.69,24.13,1.28,35.85,3.44,5.65,1.04,11.19,2.56,16.67,4.27-.37-2.11-.91-4.1-1.64-5.95-.84-2.13-1.91-4.14-3.19-6.01l-3.34-4.88,4.86-3.4c2.77-1.94,4.94-4.61,6.25-7.69,1.27-2.97,1.76-6.33,1.23-9.81-.57-3.78-2.27-7.11-4.71-9.68-2.53-2.67-5.82-4.55-9.44-5.31l-4.02-.84-.66-4.07c-1.57-9.74-6.94-17.96-14.37-23.38-7.39-5.39-16.84-7.98-26.63-6.49-3.06.46-5.97,1.29-8.68,2.44-2.84,1.2-5.45,2.72-7.78,4.49l-3.76,2.86-3.65-3c-2.08-1.71-4.5-2.98-7.1-3.69-2.48-.68-5.17-.86-7.95-.44-3.83.58-7.22,2.25-9.9,4.64-2.78,2.49-4.81,5.74-5.78,9.35l-1.56,5.82-5.81-1.6c-1.25-.34-2.57-.56-3.95-.64-1.28-.08-2.63-.01-4.02.2-5.04.76-9.31,3.4-12.21,7.09-1.51,1.92-2.65,4.11-3.34,6.48,0,0,24.56-3.71,29.36,21.09-19.51-23.85-54.81-7.18-46.46,18.02.59,1.42,1.37,2.77,2.31,4.03Z"/>
      <path class="cls-4" d="M117.52,36.99l-5.81-1.6c-9.96-2.75-20.55,3-23.52,13.12,0,0,2.79-.42,6.67-.03h0c3.37-13.94,22.66-11.48,22.66-11.48"/>
      <path class="cls-2" d="M53.08,158.06c3.69-1.57,7.61-2.01,11.5-2.85,8.01-1.74,15.93-3.52,24.05-4.7,14.98-2.17,29.98-3.01,45.1-3.43,14.75-.4,29.55-.7,44.3-.24,13.48.42,26.76,1.92,39.46,6.67,12.61,4.71,25.39,9.19,37.36,15.41,4.45-40.74-7.06-62.22-7.06-62.22-38.37-16.51-97.46-15.08-97.46-15.08,0,0-59.09-1.43-97.46,15.08,0,0-10.23,19.08-7.68,55.38,2.62-1.35,5.17-2.86,7.89-4.02Z"/>
      <path class="cls-9" d="M97.78,149.91c12.03-.44,23.88-.06,35.89.71,12.4.8,24.83.77,37.24,1.44,12.35.67,24.64,2.07,36.97,2.95,5.8.41,11.39.92,17.07,2.2,4.33.98,8.62,2.05,13,2.53-.39-12.34-3.09-19.13-3.09-19.13-35.47-11.07-84.52-10.88-84.52-10.88,0,0-49.05.39-84.52,11.47,0,0-2.1,4.67-2.87,14.35,11.23-3.86,22.97-5.22,34.83-5.65Z"/>
      <path class="cls-10" d="M237.89,159.01c-.56-11.67-3.03-18.06-3.03-18.06-9.65-3.1-20.3-5.35-30.7-6.97.53,4.13,1.05,8.92,1.52,14.4,11.41,1.11,21.63,6.46,32.21,10.64Z"/>
      <path class="cls-6" d="M126.12,104.64c.16,1.17.33,1.79.33,1.79.94,4.17,3.02,8.13,6.25,11.36,1.39,1.39,2.92,2.57,4.55,3.54,1.1.66,2.24,1.21,3.42,1.67,1.15.45,2.33.81,3.52,1.07.6.13,1.21.24,1.81.32,0,0,.01,0,.02,0,.83.14,1.67.22,2.52.25.24,0,.48.01.73.01.49,0,.98-.02,1.48-.05.6-.04,1.19-.12,1.79-.21,1.82-.25,3.61-.72,5.34-1.39,1.17-.46,2.32-1.02,3.42-1.67,1.62-.97,3.15-2.15,4.55-3.54,3.23-3.23,5.32-7.19,6.25-11.36,0,0,.17-.62.33-1.79.1-.7,2.29-8.88,2.33-9.58-20.56-24.19-41.02-21.07-42-8.31,0,0-3.93,1.17-6.68,1.19-.02.47-.19,12.51-.19,12.93-.02,1.26.06,2.52.24,3.78"/>
      <path class="cls-4" d="M159.81,72.25c2.48,4.76,4.13,9.15,5.08,13.16.13.54.24,1.07.35,1.6,1.77,1.48,3.56,3.15,5.37,5.01.11.11.21.22.32.33-1.2-5.65-2.94-9.32-5.21-14.41,5.17,4.16,9.25,8.38,11.76,14.48,15.05,1.01,34.01,3.21,51.52,7.9-1.48-6.47-4.22-9.84-7.84-15.13l4.86-3.4c9.08-6.36,10.28-19.24,2.78-27.18-2.53-2.67-5.82-4.55-9.44-5.31-1.76-.37-3.26-.76-5.98-.63-2.15.1-4.99.57-8.07,1.97.3.17.6.35.88.53,21.6-4.93,20.1,15.68,20.1,15.68-1.03,16.49-20.27,15.38-20.27,15.38,4.65,2.06,8.38,5.31,10.73,7.73-.02,0-17.13-5.48-38.46-7.32-6.86-7.22-18.48-10.37-18.48-10.37"/>
      <path class="cls-2" d="M127.23,106.25c.94,4.17,3.02,7.95,6.04,10.97,1.32,1.32,2.79,2.47,4.39,3.42,1.05.63,2.16,1.17,3.3,1.61,1.66.65,3.39,1.1,5.15,1.35h.02c1.03.17,2.08.26,3.13.26s2.1-.09,3.13-.26h.02c1.76-.25,3.5-.7,5.15-1.35,1.14-.45,2.25-.99,3.3-1.61,1.6-.95,3.07-2.1,4.39-3.42,3.02-3.02,5.1-6.8,6.04-10.97v-.02s0-.02,0-.02c.14-.53.23-1.14.31-1.69.17-1.21.26-2.43.24-3.65v-.02c0-.44,0-.87-.02-1.31-.2-6.06-1.9-12.14-4.35-17.66l-1.76-3.96c6.93,5.58,11.9,11.27,13.76,21.44,1.82,9.95-1.3,20.15-8.47,27.33-.99.99-2.05,1.92-3.17,2.77-.22.17-.44.33-.67.49-.48.34-.97.67-1.47.99-4.92,3.1-10.62,4.73-16.43,4.73s-11.51-1.63-16.43-4.73c-.5-.32-.99-.65-1.47-.99-.23-.16-.45-.33-.67-.49-1.12-.85-2.18-1.77-3.17-2.77-7.17-7.17-10.29-17.38-8.47-27.33,1.86-10.18,6.83-15.86,13.76-21.44l-1.76,3.96c-2.45,5.52-4.15,11.59-4.35,17.66-.01.44-.02.87-.02,1.31v.02c-.02,1.22.07,2.44.24,3.65.08.54.17,1.16.31,1.69v.02s0,.02,0,.02Z"/>
      <path class="cls-7" d="M71.58,144.41c4.82-2.1,29.89-10.04,65.81-8.34-32.09,2.23-65.81,8.34-65.81,8.34"/>
      <path class="cls-7" d="M83.06,145.6c6.16-2.27,37.98-10.32,82.62-5.56-40.16.42-82.62,5.56-82.62,5.56"/>
      <path class="cls-2" d="M98.02,54.34c11.79-18.27,33.48-10.92,33.62,6.28-2.65-9.38-19.71-15.17-26.58-2.51l-2.37-.28-4.67-3.49Z"/>
      <path class="cls-2" d="M217.34,48.9s-7.87-1.8-16.01,4.04c-1.86-.36-5.11-.93-6.64-1.07,1.96-5.41,8.93-11.66,18.64-13.02l6.6,1.52s1.66,6.19-2.59,8.53"/>
      <g>
        <path class="cls-2" d="M209.23,225.11c-21.24-3.15-42.7-4.58-64.13-4.58-21.43,0-42.88,1.44-64.12,4.59.03.13.05.25.07.38.53,3.05-.45,6.15-2.55,8.22-.52.51-1.09.95-1.7,1.33-.59.37-1.21.68-1.84.96-.4.18-.81.35-1.22.51-4.54,1.79-9.12,3.46-13.72,5.07-7.38,2.59-15.08,3.98-22.38,6.83-.32.13-.65.25-.97.38-5.15,2-11.09,3.9-15.85-.27-2.3-2.01-3.56-4.92-3.8-8.1l-.02-.24v-.24c-.07-2.38-.12-4.76-.18-7.14-.06-2.44-.16-4.88-.17-7.33,0-2.08-.08-4.15-.14-6.22-.18-.23-.4-.46-.56-.6l-.21-.18-.2-.2c-2-1.98-3.93-4.02-5.89-6.04C5.46,208.2.36,201.68.02,195.29c-.16-3.12.82-6.27,2.8-8.53,1.5-1.71,3.45-2.77,5.59-3.05l.65-.08.65.03c3.41.18,7.41-1.07,10.61-2.3,3.19-1.22,6.28-2.71,9.35-4.25.56-.28,1.14-.53,1.73-.72.08-2.77.7-5.5,2.09-7.86,5.2-8.82,18.36-14.16,27.33-16.3,13.12-3.45,26.49-5.62,39.9-7.09,14.75-1.62,29.57-2.35,44.39-2.35s29.64.73,44.39,2.35c13.41,1.47,26.79,3.64,39.88,7.08,8.99,2.15,22.16,7.48,27.35,16.29,1.39,2.36,2.02,5.09,2.1,7.87.59.2,1.17.45,1.73.73,3.07,1.54,6.16,3.03,9.35,4.25,3.2,1.23,7.2,2.48,10.61,2.3l.65-.03.65.08c2.15.28,4.09,1.34,5.59,3.05,1.98,2.26,2.97,5.41,2.8,8.53-.34,6.39-5.44,12.91-9.64,16.97-1.96,2.02-3.89,4.06-5.89,6.04l-.2.2-.21.18c-.16.14-.37.37-.56.6-.06,2.07-.14,4.15-.14,6.22,0,2.44-.11,4.88-.17,7.33-.06,2.38-.12,4.76-.18,7.14v.24s-.02.24-.02.24c-.24,3.19-1.5,6.1-3.8,8.1-5.05,4.42-11.44,1.99-16.83-.11-7.3-2.85-15-4.25-22.38-6.83-4.6-1.61-9.18-3.28-13.72-5.07-.41-.16-.81-.33-1.22-.51-.63-.28-1.25-.59-1.84-.96-.61-.38-1.18-.82-1.7-1.33-2.09-2.08-3.08-5.17-2.55-8.22.02-.13.05-.26.08-.39"/>
        <path class="cls-11" d="M55.55,166.16c-.3.21,19.59-6.63,37.04-8.64-16.43,4.68-37.02,8.64-37.04,8.64M62.58,160.65s-17.55,4.16-22.5,12.57c0,0-2.03,4.35.68,10.55,2.71,6.2,5.72,21.1,7.39,31.68,9.63-2.13,18.18-3.18,28.68-4.13,0,0-12.08,3.26-20.72,5.95,0,0,22.7-3.89,38-4.92,0,0-19.32,4-30.61,6.98l.25-.02c25.92-4.94,53.64-7.4,81.35-7.4,27.72,0,55.44,2.47,81.35,7.4l.25.02c-11.3-2.97-30.61-6.98-30.61-6.98,15.31,1.03,38,4.92,38,4.92-8.64-2.69-20.72-5.95-20.72-5.95,10.49.95,19.05,2.01,28.68,4.13,1.67-10.58,4.68-25.48,7.39-31.68,2.71-6.2.68-10.55.68-10.55-4.95-8.42-22.5-12.57-22.5-12.57-34.68-9.13-70.6-8.95-105.25-4.45,0,0,7.39-2.27,18.89-4.75-28.3.25-56.36,3.32-78.7,9.2Z"/>
        <path class="cls-3" d="M53.62,163.6c-5.11,2.09-10.99,5.29-13.54,9.62,0,0-2.03,4.35.68,10.55,2.71,6.2,5.72,21.1,7.39,31.68,8.35-1.85,15.89-2.88,24.59-3.75-5.48.39-15.96.49-18.3-4.14h0l-.3-.83c-1.51-4.25-9.59-28.24-7.45-34.62h0s0,0,0,0c1.72-5.14,6.9-8.49,6.93-8.51"/>
        <path class="cls-3" d="M257.29,184.96c1.12.56,14.38,7.8,23.59,7.32,0,0,1.6.21,1.48,2.5-.12,2.29-2.52,6.71-7.08,11.08,0,0-5.38,5.54-5.87,6.02,0,0-.6.52-1.31,1.34l-4.11-8.51c.51,12.97,1.56,21.98,1.37,35-.34,4.45-5.47,2.41-10.16.57-7.04-2.75-15.13-4.3-22.62-6.92-.94-.33-1.87-.66-2.8-.99-.3-1.65-.76-3.03-1.31-4.17,11.08,2.04,20.86,6.14,32.03,10.59-9.26-5.57-19.12-10.14-22.47-11.66.65-.11,1.28-.25,1.88-.42,2.55.16,4.97.42,4.97.42-.66-.4-1.55-.88-2.49-1.36.79-.4,1.5-.89,2.1-1.48,2.78.48,5.19.99,5.19.99-1.4-.67-2.88-1.34-4.34-1.98.7-1,1.16-2.21,1.3-3.69.59-4.76,1.4-9.53,2.32-14.22.75-3.82,1.59-7.64,2.57-11.4.67-2.54,1.45-5.45,2.5-7.84.72-1.65,1.22-2.24,3.27-1.21M258.72,188.44c-.11,0,6.36,3.13,11.48,4.74-6.34-.58-11.47-4.73-11.48-4.74ZM256.19,185.83c-.15-.01,8.81,4.33,15.9,6.56-8.61-1.21-15.89-6.56-15.9-6.56ZM29.62,240.18c1.69-.5,17.37-5.23,30.14-8.91-16.14,1.65-28.47,8.31-30.14,8.91ZM32.93,184.96c-1.12.56-14.38,7.8-23.59,7.32,0,0-1.6.21-1.48,2.5.12,2.29,2.52,6.71,7.08,11.08,0,0,5.38,5.54,5.87,6.02,0,0,1.03.88,1.98,2.17l3.09-8.28-1.36,19.72c0,.75.34,14.22.34,14.22.34,4.45,5.47,2.41,10.16.57,7.04-2.75,15.13-4.3,22.62-6.92.94-.33,1.87-.66,2.8-.99.36-2.01.96-3.6,1.68-4.87-5.35.25-17.66,1.08-18.53-7.89-.59-4.76-1.4-9.53-2.32-14.22-.67-3.43-1.42-6.86-2.27-10.25-8.58,2.72-17.71,6.03-17.71,6.03,6.04-3.63,12.34-6.84,16.91-9.05-.05-.19-1.66-5.14-1.72-5.3-2.42.44-4.37.84-4.37.84,1.28-.61,2.62-1.22,3.96-1.81-.66-1.42-1.21-1.87-3.13-.91Z"/>
        <path class="cls-3" d="M55.25,202.18s-5.79-10.25-6.25-24.19c2.42,11.9,6.25,24.19,6.25,24.19"/>
        <path class="cls-3" d="M58.44,204.59s-7.7-13.64-8.31-32.19c3.22,15.84,8.31,32.19,8.31,32.19"/>
        <path class="cls-3" d="M236.6,163.6c5.11,2.09,10.99,5.29,13.54,9.62,0,0,2.03,4.35-.68,10.55-2.71,6.2-5.72,21.1-7.39,31.68-8.35-1.85-15.89-2.88-24.59-3.75,5.48.39,15.96.49,18.3-4.14h0l.3-.83c1.51-4.25,9.59-28.24,7.45-34.62h0s0,0,0,0c-1.72-5.14-6.9-8.49-6.93-8.51"/>
        <path class="cls-2" d="M156.53,156.99s35.17-1.46,58.82,4.88c-12.3-6.4-44.86-8.43-58.82-4.88"/>
        <path class="cls-3" d="M241.7,173.4s.08,16.05-8.24,32.21c4.79-15.35,8.24-32.21,8.24-32.21"/>
        <path class="cls-2" d="M115,210.52s32.56-2.03,62.57.08c-10.93-3.43-49.61-3.99-62.57-.08"/>
      </g>
      <path class="cls-5" d="M91.71,143.23c.09-.73.19-1.43.3-2.09-9.76,1.42-16.98,2.66-19.48,3.1-.62.11-.95.17-.95.17.21-.09.46-.2.75-.31,2.96-1.16,9.93-3.37,20.06-5.21.09-.49.18-.95.28-1.38.16-.78.33-1.47.48-2.08.09-.34.17-.66.25-.95-.95.16-1.91.33-2.86.5-1.49.27-2.97.55-4.45.84-6.22,1.23-12.38,2.71-18.22,4.49-.69.21-1.37.42-2.04.64,0,0-.75.26-2.14,8.84-.04.17-.21,1.68-.22,1.77,1.83-.28,8.48-1.93,27.35-5.18.2-.03.38-.06.54-.08,0,0-.04.41.19-1.64-5.35.56-8.48.94-8.48.94,1.47-.54,4.41-1.41,8.65-2.36"/>
      <path class="cls-4" d="M84.13,85.99c-14.04-14.35,10.44-36.09,33.42-16.4-19.51-23.85-54.81-7.18-46.46,18.02.89,2.38,3.14,5.15,4.7,7.26-.93,1.52-2.28,3.62-3.07,5.17,16.32-4.27,33.86-6.41,48.27-7.46,2.51-6.18,6.61-10.44,11.82-14.64-1.49,3.35-2.82,6.15-3.95,9.7,2.04-.35,3.88-.9,3.88-.9.16-2.08.83-3.88,1.92-5.32,1.06-2.89,2.42-5.97,4.11-9.25-4.79,1.26-13.55,6.32-20.53,13.75-15.96-1.3-34.11.07-34.11.07"/>
      <path class="cls-4" d="M108.62,53.72c1.13.89,2.22,1.93,3.22,3.13,5.74-3.91,15.81-4.02,19.8,3.76-.62-2.2-2.03-4.2-3.92-5.81-5-4.27-13.33-5.82-19.11-1.09"/>
      <path class="cls-4" d="M127.64,92.14c-1.98,9.08-1.4,18.05,5.63,25.07,8.81,8.81,23.17,8.81,31.99,0,3.02-3.02,5.1-6.8,6.04-10.97.52-2.28.61-4.37.54-6.69-.08-2.41-.4-4.83-.91-7.21-.11-.11-.21-.22-.32-.33-1.81-1.86-3.6-3.53-5.37-5.01.33,1.67.54,3.28.64,4.81,1.9,29.89-38.62,32.31-33.98.12.46-3.17,1.35-6.67,2.76-10.51-1.09,1.44-1.76,3.24-1.92,5.32,0,0-1.84.55-3.88.9-.47,1.48-.88,2.99-1.21,4.51"/>
      <path class="cls-4" d="M212.11,65.58c-6.81-8.77-20.09-8.69-26.93,0l1.09-6.5s4.12-3.61,4.68-3.74c.56-.13,5.67-1.98,6.74-1.98s6.83.39,7.22.56c.39.17,3.31,1.29,3.61,1.5.3.21,3.35,4.77,3.59,10.16"/>
      <path class="cls-2" d="M198.65,48.91c7.61,0,13.77,6.17,13.77,13.77,0,1-.11,1.97-.31,2.9-1.33-6.21-6.85-10.87-13.46-10.87s-12.13,4.66-13.46,10.87c-.2-.94-.31-1.91-.31-2.9,0-7.61,6.17-13.77,13.77-13.77"/>
      <path class="cls-4" d="M187.1,38.5c-6.81-8.77-20.09-8.69-26.93,0l1.09-6.5s4.12-3.61,4.68-3.74c.56-.13,5.67-1.98,6.74-1.98s6.83.39,7.22.56c.39.17,3.31,1.29,3.61,1.5.3.21,3.35,4.77,3.59,10.16"/>
      <path class="cls-2" d="M173.64,21.82c7.61,0,13.77,6.17,13.77,13.77,0,1-.11,1.97-.31,2.9-1.33-6.21-6.85-10.87-13.46-10.87s-12.13,4.66-13.46,10.87c-.2-.94-.31-1.91-.31-2.9,0-7.61,6.17-13.77,13.77-13.77"/>
      <path class="cls-4" d="M88.65,84.02s12.84-.64,24.78-.09c-6.34-2.03-17.81-2.46-24.78.09"/>
      <path class="cls-4" d="M181.56,81.33s12.78,1.4,24.48,3.84c-5.93-3.01-17.2-5.25-24.48-3.84"/>
      <path class="cls-4" d="M100.12,81.07s5.63-.15,12.2,1.48c-4.28-2.17-8.44-2.26-12.2-1.48"/>
      <path class="cls-4" d="M134.65,91.91c-4.5,21.42,22.53,28.9,28.33,4.31-6.06,15-28.37,14.58-28.33-4.31"/>
      <g>
        <g>
          <path class="cls-12" d="M95.79,173.65c-2.78.3-4.16.47-6.94.81,1.22,9.77,2.43,19.54,3.65,29.32-3.17.39-4.76.61-7.93,1.06-1.4-9.75-2.79-19.5-4.19-29.24-2.74.39-4.12.6-6.86,1.03l-.91-5.77c8.99-1.42,13.5-2.03,22.54-3.01.25,2.32.38,3.48.63,5.81Z"/>
          <path class="cls-12" d="M129.29,165.37c-2.39,11.86-4.56,23.77-6.53,35.71-3.9.21-5.85.34-9.75.64-3.52-11.58-7.25-23.1-11.19-34.55,3.58-.34,5.38-.49,8.97-.76,2.69,10.33,3.99,15.5,6.47,25.87,1.14-10.6,1.76-15.9,3.11-26.49,3.57-.2,5.35-.28,8.92-.41Z"/>
          <path class="cls-12" d="M154.27,165.13c5.49.09,7.52,2.53,7.4,6.31-.14,4.29-.21,6.44-.36,10.73-.13,3.84-2.21,6.08-7.43,5.99-2.75-.05-4.13-.06-6.89-.06,0,4.94-.01,7.41-.02,12.35-3.17,0-4.75,0-7.92.06-.19-11.79-.39-23.59-.58-35.38,6.32-.1,9.49-.1,15.81,0ZM153.14,172.35c.01-1-.4-1.4-1.53-1.41-1.84-.02-2.75-.03-4.59-.03,0,4.54-.01,6.81-.02,11.35,1.79,0,2.69,0,4.48.03,1.11.01,1.52-.37,1.53-1.37.05-3.43.08-5.14.13-8.57Z"/>
          <path class="cls-12" d="M188.73,196.66c-.23,2.33-.34,3.49-.56,5.81-7.23-.7-10.85-.97-18.1-1.37.65-11.78,1.29-23.55,1.94-35.33,3.42.19,5.13.3,8.56.55-.72,9.82-1.44,19.64-2.16,29.46,4.13.3,6.2.48,10.32.88Z"/>
          <path class="cls-12" d="M215.2,200.04c-.37,2.31-.55,3.46-.91,5.77-7.19-1.14-10.79-1.63-18.01-2.47,1.36-11.72,2.71-23.43,4.07-35.15,3.41.39,5.11.61,8.52,1.07-1.31,9.76-2.62,19.52-3.93,29.28,4.11.55,6.17.85,10.27,1.5Z"/>
        </g>
        <g>
          <path class="cls-13" d="M92.82,173.36c-2.78.3-4.16.47-6.94.81,1.22,9.77,2.43,19.54,3.65,29.32-3.17.39-4.76.61-7.93,1.06-1.4-9.75-2.79-19.5-4.19-29.24-2.74.39-4.12.6-6.86,1.03-.37-2.31-.55-3.46-.91-5.77,8.99-1.42,13.5-2.03,22.54-3.01.25,2.32.38,3.48.63,5.81Z"/>
          <path class="cls-13" d="M126.33,165.08c-2.39,11.86-4.56,23.77-6.53,35.71-3.9.21-5.85.34-9.75.64-3.52-11.58-7.25-23.1-11.19-34.55,3.58-.34,5.38-.49,8.97-.76,2.69,10.33,3.99,15.5,6.47,25.87,1.14-10.6,1.76-15.9,3.11-26.49,3.57-.2,5.35-.28,8.92-.41Z"/>
          <path class="cls-13" d="M151.31,164.85c5.49.09,7.52,2.53,7.4,6.31-.14,4.29-.21,6.44-.36,10.73-.13,3.84-2.21,6.08-7.43,5.99-2.75-.05-4.13-.06-6.89-.06,0,4.94-.01,7.41-.02,12.35-3.17,0-4.75,0-7.92.06-.19-11.79-.39-23.59-.58-35.38,6.32-.1,9.49-.1,15.81,0ZM150.17,172.06c.01-1-.4-1.4-1.53-1.41-1.84-.02-2.75-.03-4.59-.03,0,4.54-.01,6.81-.02,11.35,1.79,0,2.69,0,4.48.03,1.11.01,1.52-.37,1.53-1.37.05-3.43.08-5.14.13-8.57Z"/>
          <path class="cls-13" d="M185.76,196.37c-.23,2.33-.34,3.49-.56,5.81-7.23-.7-10.85-.97-18.1-1.37.65-11.78,1.29-23.55,1.94-35.33,3.42.19,5.13.3,8.56.55-.72,9.82-1.44,19.64-2.16,29.46,4.13.3,6.2.48,10.32.88Z"/>
          <path class="cls-13" d="M212.23,199.75c-.37,2.31-.55,3.46-.91,5.77-7.19-1.14-10.79-1.63-18.01-2.47,1.36-11.72,2.71-23.43,4.07-35.15,3.41.39,5.11.61,8.52,1.07-1.31,9.76-2.62,19.52-3.93,29.28,4.11.55,6.17.85,10.27,1.5Z"/>
        </g>
        <g>
          <path class="cls-1" d="M91.11,172.66c-2.78.3-4.16.47-6.94.81,1.22,9.77,2.43,19.54,3.65,29.32-3.17.39-4.76.61-7.93,1.06-1.4-9.75-2.79-19.5-4.19-29.24-2.74.39-4.12.6-6.86,1.03-.37-2.31-.55-3.46-.91-5.77,8.99-1.42,13.5-2.03,22.54-3.01.25,2.32.38,3.48.63,5.81Z"/>
          <path class="cls-1" d="M124.62,164.38c-2.39,11.86-4.56,23.77-6.53,35.71-3.9.21-5.85.34-9.75.64-3.52-11.58-7.25-23.1-11.19-34.55,3.58-.34,5.38-.49,8.97-.76,2.69,10.33,3.99,15.5,6.47,25.87,1.14-10.6,1.76-15.9,3.11-26.49,3.57-.2,5.35-.28,8.92-.41Z"/>
          <path class="cls-1" d="M149.6,164.14c5.49.09,7.52,2.53,7.4,6.31-.14,4.29-.21,6.44-.36,10.73-.13,3.84-2.21,6.08-7.43,5.99-2.75-.05-4.13-.06-6.89-.06,0,4.94-.01,7.41-.02,12.35-3.17,0-4.75,0-7.92.06-.19-11.79-.39-23.59-.58-35.38,6.32-.1,9.49-.1,15.81,0ZM148.47,171.36c.01-1-.4-1.4-1.53-1.41-1.84-.02-2.75-.03-4.59-.03,0,4.54-.01,6.81-.02,11.35,1.79,0,2.69,0,4.48.03,1.11.01,1.52-.37,1.53-1.37.05-3.43.08-5.14.13-8.57Z"/>
          <path class="cls-1" d="M184.05,195.67c-.23,2.33-.34,3.49-.56,5.81-7.23-.7-10.85-.97-18.1-1.37.65-11.78,1.29-23.55,1.94-35.33,3.42.19,5.13.3,8.56.55-.72,9.82-1.44,19.64-2.16,29.46,4.13.3,6.2.48,10.32.88Z"/>
          <path class="cls-1" d="M210.53,199.04c-.37,2.31-.55,3.46-.91,5.77-7.19-1.14-10.79-1.63-18.01-2.47,1.36-11.72,2.71-23.43,4.07-35.15,3.41.39,5.11.61,8.52,1.07-1.31,9.76-2.62,19.52-3.93,29.28,4.11.55,6.17.85,10.27,1.5Z"/>
        </g>
      </g>
    </g>
  </g>
</svg>